# xmcd
#
# Track frame offsets:
#	150
#	15768
#	39558
#	53591
#	77164
#	92882
#	109579
#	121056
#	138017
#	158953
#	172890
#	186492
#	200932
#	220501
#	239261
#	255601
#	279582
#	296830
#	311161
#	324214
#
# Disc length: 4508
#
# Revision: 3
# Processed by: cddbd v1.5.1PL0 Copyright (c) Steve Scherf et al.
# Submitted via: audiograbber 1.82.02
# Normalized: r2:DSETVAR1
#
DISCID=13119a14
DTITLE=Various Artist - Trance - The ultimate collection - vol. 2, 2003 - Disc 2 of 4
DYEAR=2003
DGENRE=Trance
TTITLE0=Scooter - Weekend!
TTITLE1=Armin van Buuren - Sunburn (Walk trough the fire)
TTITLE2=Benni Benasi presents 'The Biz' - Satisfaction
TTITLE3=Sunset Drive - L.O.S. (clubmix)
TTITLE4=Bas van Veen - Lockdown
TTITLE5=Solid Globe - North pole
TTITLE6=DJ Energy - Ayra
TTITLE7=Vector 7 - Mauvais Souvenirs
TTITLE8=Jeffed - Into the light
TTITLE9=Dark Raven - I Believe (Hold me in the darkness)
TTITLE10=DJ Boozywoozy feat. Joyz - I wanne fly
TTITLE11=B-Man - Music moves ya - The Club, The People, The DJ
TTITLE12=Blair Bitch - Amoras
TTITLE13=Astura - Orions belt
TTITLE14=Ernesto vs Bastian - Being single (Christo mix)
TTITLE15=DT8 feat. Roxanne Wilde - Destination (Jurgen Vries)
TTITLE16=Lost Lynx - Seasons (The Drives remix)
TTITLE17=Lambda - Hold on tight (Reeloop)
TTITLE18=DJ Vincenzo - Heart and soul
TTITLE19=Stimulator - Scream
EXTD=Submitted by Carnager (SDV)
EXTT0=
EXTT1=
EXTT2=
EXTT3=
EXTT4=
EXTT5=
EXTT6=
EXTT7=
EXTT8=
EXTT9=
EXTT10=
EXTT11=
EXTT12=
EXTT13=
EXTT14=
EXTT15=
EXTT16=
EXTT17=
EXTT18=
EXTT19=
PLAYORDER=
